<?xml version="1.0" encoding="utf-8"?>
<!-- Generator: Adobe Illustrator 27.9.1, SVG Export Plug-In . SVG Version: 6.00 Build 0)  -->
<svg version="1.1" id="Layer_1" xmlns="http://www.w3.org/2000/svg" xmlns:xlink="http://www.w3.org/1999/xlink" x="0px" y="0px"
	 viewBox="0 0 864 343" style="enable-background:new 0 0 864 343;" xml:space="preserve">
<style type="text/css">
	.st0{fill:#FF0000;}
</style>
<g>
	<path class="st0" d="M-163.6,761.2V640h35.2c26,0,42.6,12.9,42.6,36.7c0,23.7-16.2,36.7-42.4,36.7h-17.7v47.8H-163.6z
		 M-128.4,697.2c15.6,0,24.9-7.4,24.9-20.5c0-13.3-9.7-20.5-25.1-20.5h-17.4v40.9L-128.4,697.2L-128.4,697.2z"/>
	<path class="st0" d="M-70.4,761.2V640h17.7v121.2H-70.4L-70.4,761.2z"/>
	<path class="st0" d="M-48,676.6c-6.2,0-9-3.6-9-8.8c0-13,19.2-36.8,41.1-36.8c14.1,0,16.8,10.2,16.8,18.3
		c0,23.3-23.2,73-39.1,108.5c28-50.9,65.5-105.7,86.6-105.7c5.7,0,10,4.3,10,11.6c0,23.2-21.8,63.1-21.8,92.9
		c0,11.5,3.4,21.6,13.3,28.9c0.5,0.4-0.2,1.1-0.7,0.8c-10-7.5-13.6-17.9-13.6-29.7c0-29.8,21.8-69.7,21.8-92.9
		c0-6.6-3.8-10.6-9-10.6c-21.6,0-62.1,60.6-90.2,113.1c-0.2,0.6-1.1,0.2-0.8-0.4c15.6-35.5,42.5-91.3,42.5-116.5
		c0-7.5-2.5-17.3-15.8-17.3c-21.3,0-40.1,23.1-40.1,35.8c0,4.7,2.5,7.8,8,7.8c7.7,0,19.6-9,25-18.7c0.2-0.5,1.1-0.2,0.8,0.5
		C-27.8,667.5-40.1,676.6-48,676.6z"/>
	<path class="st0" d="M81.3,761.2V640h17.7v121.2H81.3L81.3,761.2z M145.3,761.2l-46-61.1l46-60.1h21.8l-47.3,60.1l47.3,61.1H145.3z
		"/>
	<path class="st0" d="M-205.3,937.4V816.2h32.9c22.3,0,36.4,13.9,36.4,32.9c0,10.3-2.9,16.9-10.8,23.6c11.6,6.6,18,15.9,18,29.5
		c0,21.6-16.2,35.2-38.3,35.2H-205.3L-205.3,937.4z M-173,866.6c12,0,19.3-5.7,19.3-17c0-11.6-7.4-17.2-20.3-17.2h-13.6v34.2H-173z
		 M-168.6,921.2c12.6,0,22.1-7.2,22.1-19c0-8.2-5.6-19.3-21.6-19.3h-19.5v38.3H-168.6z"/>
	<path class="st0" d="M-27.6,898c-18.1,30.6-38.2,47.1-63.7,47.1c-21.5,0-31.3-11.8-31.3-26.9c0-17.8,14-37.6,32-48.4
		c-8.8-4.6-12.7-13.3-12.7-22.8c0-19.1,16.5-41.8,44.1-41.8c15.2,0,22.1,10.1,22.1,21.4c0,5.5-1.7,11.3-4.8,16.4
		c-0.7,1.2-2.4,0.1-1.6-1c2.9-4.8,4.5-10.2,4.5-15.4c0-10.3-6.4-19.4-20.1-19.4c-26.4,0-42.2,21.5-42.2,39.8c0,9.2,4,17.4,12.9,21.5
		c7.9-4.3,16.3-6.9,24.6-6.9c5.7,0,7.9,1.8,7.9,4.3c0,4.3-7.9,7.4-18.6,7.4c-5.6,0-10.2-0.9-14.1-2.5
		c-17.9,10.2-32.1,29.8-32.1,47.4c0,14.2,9.5,25,29.3,25c25.1,0,43.9-15.6,62-46C-28.8,896-27,896.8-27.6,898z M-74.4,871.3
		c7.9,0,16.6-2,16.6-5.4c0-1.8-2.9-2.3-6-2.3c-7.5,0-15.2,2.2-22.4,5.9C-82.8,870.6-79,871.3-74.4,871.3z"/>
	<path class="st0" d="M100.7,883.6c-4.1,0-9,0-14.2,0.1c-3.7,15.6-6.6,30.6-6.6,41.3c0,28,17.3,40.9,30.5,41.7c1.3,0,1.2,2-0.2,2
		c-13.8-0.7-32.3-14-32.3-43.6c0-10.6,2.9-25.6,6.6-41.2c-12.4,0.2-27,0.9-41.8,2.7C23,915.7,0.3,941.3-22.9,941.3
		c-7.5,0-16.6-2.8-22.4-9.5c-0.9-1.1,0.7-2.2,1.5-1.3c5.5,6.2,13.9,8.8,21,8.8c22.3,0,43.9-24.6,63-52.4
		c-13.8,1.8-27.5,4.7-38.7,8.9c-1.1,0.5-1.9-1.4-0.7-1.8c11.8-4.6,26.3-7.5,40.9-9.3c26.5-38.8,44.8-77.8,56.4-77.8
		c2.3,0,4.5,1.5,4.5,7c0,11-8.9,40.3-15.6,68c5.1-0.1,9.8-0.1,13.8-0.1C102,881.6,102,883.6,100.7,883.6z M100.6,813.8
		c0-3.4-0.9-5.1-2.8-5.1c-9.2,0-28.5,38.2-53.6,75.6c14.4-1.7,28.7-2.3,40.8-2.5C91.6,854,100.6,824.7,100.6,813.8z"/>
	<path class="st0" d="M182.5,937.4l-40-56.2h-0.3v56.2h-17.7V816.2h38.8c29.2,0,42.1,15.4,42.1,40.3c0,23.1-17.7,35.2-34.7,35.7
		l33.9,45.2H182.5L182.5,937.4z M155.2,878.7c20.6,0,32.6-8,32.6-23.8c0-13.9-11.1-22.6-26.9-22.6h-18.7v46.4H155.2z"/>
</g>
<path class="st0" d="M57.6,144.6c-1.2-11.1-9-27-30.1-25.8C1.2,120.4-1,146.9,4.3,165.9c8.2,29.5,49.6,48.6,53.3,58.4
	c2.3-9.8,45.1-28.9,53.3-58.4c5.3-18.9,3.1-45.5-23.2-47.1C66.6,117.6,58.8,133.4,57.6,144.6z"/>
<path class="st0" d="M808,144.6c-1.2-11.1-9-27-30.1-25.8c-26.4,1.6-28.5,28.1-23.2,47.1c8.2,29.5,49.6,48.6,53.3,58.4
	c2.3-9.8,45.1-28.9,53.3-58.4c5.3-18.9,3.1-45.5-23.2-47.1C817,117.6,809.2,133.4,808,144.6z"/>
<g>
	<path class="st0" d="M288.8,61.1c12.3-28.3,24.1-44.5,39.8-44.5c15.2,0,22.6,15.1,22.6,31.6c0,26.2-18.3,60.9-47.3,60.9
		c-17.7,0-38.5-9.8-49.4-19l-0.2,0.2c8,7.7,20.3,15.2,31.4,18.8c0.7,4.7,2,10.8,3.3,15.7c-4.6,6.5-13.1,13.3-21.1,13.3
		c-12.9,0-26.2-10.8-26.2-43.9c0-14.6,3.6-33.9,7.4-45.3c5.2,2,11,2.8,16.4,2.8c2.6,0,4.4-0.2,4.4-0.2v-0.3
		C249.3,48.6,237,37.7,237,20.3c0-4.1,0.7-8.8,2.3-14.1C254.7,16.7,277,21,293,21c3.3,0,6.2-0.3,8.3-0.5
		c-6.1,11.8-10.5,25.5-12.8,40.6H288.8z M305.9,53.7c-6.7,10.5-14.4,25.4-21.4,41.3c3.8-0.8,8.8-8,12.1-14.1
		c4.4-8,7.9-18.8,9.7-27.2C306.1,53.9,306.1,53.4,305.9,53.7z"/>
	<path class="st0" d="M406.5,20.8c2.9,0,5.7-0.2,8-0.7c-12.3,21.6-18,48.1-18,72.9c0,10.5,1.3,21.1,4.3,31.8
		C395.5,132,388,138,377.6,138c-20.3,0-25.7-24.7-25.7-44.4c0-16.9,1.3-31.6,6.2-45.2c4.9,2,11.1,2.9,17,2.9c1.5,0,3.1,0,4.4-0.2
		v-0.3C364.2,49.3,347,41,347,20.7c0-4.3,0.8-9.2,2.5-14.6C365.2,17.1,388.9,20.8,406.5,20.8z"/>
	<path class="st0" d="M444,76.2c-7.9-9.8-20.1-22.9-30.3-30.8c6.7-13.3,18.7-29,34.2-29c22.9,0,44.5,35.2,52.9,51.9l0.3-0.2
		c-2-5.9-4.6-11.5-7.4-16.9c-0.7-3.9-0.8-5.6-0.8-8.8c0-15.1,7.9-25.9,19.8-25.9c10.8,0,16.5,6.9,16.5,15.2c0,1.1,0,2.5-0.3,3.8
		c-21.4,0.7-23.4,28.3-23.4,43.4c3.3,8.2,4.7,15.6,4.7,23.4c0,20.8-10.1,33.4-28.6,35.7c-8.7-22.4-19.2-39-32.6-55.8l-0.2,0.2
		c2.1,3.4,8,13.6,10.3,18.8c-1.6,19.5-18,36.8-34.4,36.8c-16,0-22.8-12.9-22.8-25.4c0-9,3.6-17.8,9.5-21.1c3.1,4.9,9.5,9.2,15.1,9.2
		C435.9,100.7,444,94.2,444,76.2z"/>
	<path class="st0" d="M571.5,21c3.3,0,6.2-0.3,8.3-0.5c-14.9,30.3-16.4,64.3-17.7,90h0.3c3.9-41.7,11.5-94,43.4-94
		c14.7,0,22.8,10.6,22.8,22.1c0,2.8-0.5,5.7-1.5,8.5c-23.9,10-35.9,29.5-50.9,61.2h0.5c5.4-10.8,13.1-22.9,21-32.6
		c0,13.6,4.6,23.9,12.8,23.9c5.4,0,10.1-5.1,13.6-10.3c2.9,0,4.4,4.1,4.4,8.3c0,19.8-16,40.3-38.1,40.3c-11.1,0-17.2-8.7-20-16.7
		c-4.4,8.8-13.1,16.7-24.2,16.7c-12.9,0-26-10.8-26-43.9c0-14.6,3.6-33.9,7.4-45.3c5.2,2,11,2.8,16.4,2.8c2.6,0,4.4-0.2,4.4-0.2
		v-0.3c-20.5-2.5-32.7-13.4-32.7-30.8c0-4.1,0.7-8.8,2.3-14.1C533.2,16.7,555.4,21,571.5,21z"/>
	<path class="st0" d="M199.2,290.6c0-14.6,3.6-33.9,7.4-45.3c5.2,2,11,2.8,16.4,2.8c2.6,0,4.4-0.2,4.4-0.2v-0.3
		c-20.5-2.5-32.7-13.4-32.7-30.8c0-4.1,0.7-8.8,2.3-14.1c15.4,10.5,37.7,14.7,53.7,14.7c3.3,0,6.4-0.3,8.3-0.5
		c-5.6,11.3-10,25.7-12.9,40.6h0.3c10.5-24.1,22.3-44.5,39.8-44.5c11.6,0,19,9.3,19,22.6c0,7.2-2.1,14.7-7,21.4
		c-2.8-1.1-6.4-1.8-10-1.8c-11.8,0-25.4,6.7-32.7,16.7l0.3,0.2c9-8.3,17.7-14.6,30-14.6c15.6,0,21.8,10,21.8,23.1
		c0,21.4-16.5,52.9-40.3,52.9c-17.7,0-31.6-17.4-39.9-33.9h-0.5c4.4,10.8,8.8,18.3,15.9,26.2c-3.1,4.6-9.2,8.7-17.2,8.7
		C212.5,334.5,199.2,323.7,199.2,290.6z M256.8,279.2h-0.3c-5.1,9.3-9.2,19.6-11.5,31.4C252.2,300.4,256.5,291.1,256.8,279.2z
		 M270.9,231.7h-0.3c-4.1,8-7,15.6-9,24.7C267.5,249.7,270.9,241.8,270.9,231.7z"/>
	<path class="st0" d="M420.4,269.7c2.8,0.5,4.1,2.9,4.1,6.4c0,19-16.7,58.4-62.2,58.4c-27.3,0-51.6-13.8-51.6-35.2
		c0-16,12.1-29.5,28.8-33.6c8,3.1,16.9,4.3,28,4.4v-0.5c-23.2,0-38.8-11.8-38.8-26.8c0-14.9,16.7-29.8,49.4-29.8
		c23.1,0,32.3,10.3,32.3,20.8c0,9.5-7.5,19.2-19,21.1c-4.3-6.2-9.5-8.8-14.6-8.8c-9,0-17.7,8-20.3,18l0.3,0.2
		c4.6-10.6,12.4-16,19.5-16c10.1,0,16.4,10,16.4,22.6c0,15.1-8,23.9-18.7,23.9c-9.2,0-18.3-7-18.3-17.4h-0.3c0,12.3,9.3,20,19,20
		c6.5,0,13.3-3.1,17.2-11.3C403,282.6,413.8,276.2,420.4,269.7z"/>
	<path class="st0" d="M556.6,277.2c2.8,0.5,4.1,2.9,4.1,6.4c0,17.5-9.7,50.9-32.9,50.9c-14.4,0-22.4-12.1-25.9-24.7
		c-1,6.5-5.2,14.1-11.8,14.1c-5.4,0-8-6.4-8-14.4c0-4.6,0.8-9.8,2.3-14.6h-0.3c-2.1,5.6-3.9,12.4-4.7,19.5
		c-10.3,14.7-22.8,25.4-42.1,25.4c-19.5,0-27.5-13.4-27.5-26c0-11.5,6.4-22.3,16.7-22.3c0.7,8.5,10,12.3,17.2,12.3
		c18.5,0,41.7-22.8,53.7-46c2.8-11,6.4-21,11.1-29.1c-28.6,0-37,10.5-37,19.5c0,6.7,5.2,12.6,12.3,12.6c0,11.5-13.3,20.8-26.5,20.8
		c-21.1,0-32.6-15.7-32.6-32.4c0-28.2,23.7-39.1,50.1-39.1c14.2,0,29.1,3.1,41.6,8.5c5.7-5.6,12.8-8.8,21.9-8.8
		c14.1,0,19.5,6.7,19.5,14.7c0,7.7-4.9,16.2-12,21.1c1-8.2,2.6-16.2,5.1-23.4h-0.3c-6.4,13.9-9.8,31.1-9.8,48.5c0,9.5,1,19,3.1,28
		C548.6,293.2,553.5,285,556.6,277.2z M492.6,289.5c1.1,0,2.5-0.2,3.6-0.5c-0.7-3.1-1-5.7-1-8.5c0-3.4,0.7-8.2,1.3-12.4h-0.3
		c-1.5,8.2-3.9,14.6-7.4,20.6C489.8,289.3,490.9,289.5,492.6,289.5z"/>
	<path class="st0" d="M601.9,257.5c7.9-19.6,21.8-44.5,40.1-44.5c14.6,0,22.6,13.6,22.6,31.8c0,25.5-17,57.3-44.7,57.3h-0.2v0.3
		c1.1,0.2,2.3,0.2,3.3,0.2c9.5,0,18.5-3.9,24.2-8.7c1.5,1.6,4.1,2.3,5.7,2.3c5.6,0,10.6-5.6,13.6-10.3c2.9,0,4.4,4.1,4.4,8.3
		c0,19.8-16.2,40.3-37.2,40.3c-20.5,0-25.7-15.6-27.3-33.6c-11.6-2.8-25.2-8.5-36-17.5l-0.2,0.2c6.7,8,21.4,15.1,28.2,18
		c0.3,6.9,1.6,13.1,3.4,19.6c-4.6,6.5-13.1,13.3-21.1,13.3c-12.9,0-26.2-10.8-26.2-43.9c0-14.6,3.6-33.9,7.4-45.3
		c5.2,2,11,2.8,16.4,2.8c2.6,0,4.4-0.2,4.4-0.2v-0.3c-20.5-2.5-32.7-13.4-32.7-30.8c0-4.1,0.7-8.8,2.3-14.1
		c15.4,10.5,37.7,14.7,53.7,14.7c3.3,0,8.3-0.5,8.3-0.5c-6.1,11.8-10.5,25.5-12.8,40.6H601.9z M619.4,250.2
		c-6.9,11.5-13.9,23.9-20.1,38.5c7.5,0,17.7-22.9,20.5-38.5H619.4z"/>
</g>
</svg>
